PathFileType	4	(X/Y/Z)	D:\Research_projects\MuscleProsody\BulkSports2Dtrack\RetrackedSports2D\p1_sample60_cam3\p1_sample60_cam3_Sports2D\p1_sample60_cam3_Sports2D_px_person00.trc
DataRate	CameraRate	NumFrames	NumMarkers	Units	OrigDataRate	OrigDataStartFrame	OrigNumFrames
60	60	12	22	m	60	292	780
Frame#	Time	Hip			RHip			RKnee			RAnkle			RBigToe			RSmallToe			RHeel			LHip			LKnee			LAnkle			LBigToe			LSmallToe			LHeel			Neck			Head			Nose			RShoulder			RElbow			RWrist			LShoulder			LElbow			LWrist		
		X1	Y1	Z1	X2	Y2	Z2	X3	Y3	Z3	X4	Y4	Z4	X5	Y5	Z5	X6	Y6	Z6	X7	Y7	Z7	X8	Y8	Z8	X9	Y9	Z9	X10	Y10	Z10	X11	Y11	Z11	X12	Y12	Z12	X13	Y13	Z13	X14	Y14	Z14	X15	Y15	Z15	X16	Y16	Z16	X17	Y17	Z17	X18	Y18	Z18	X19	Y19	Z19	X20	Y20	Z20	X21	Y21	Z21	X22	Y22	Z22
292	4.866666666666666	232.87962848392186	545.0198206328254	0.0	205.75530185826236	545.0849488345299	0.0	205.3917208931453	668.003938100022	0.0	219.6159494426986	772.5188142313216	0.0	185.63807775168925	809.4405679403652	0.0	183.06277665124176	798.278532083403	0.0	230.1492920481228	788.4642942403179	0.0	256.1824224428108	548.6867208121434	0.0	250.6350086553843	674.5060709419317	0.0	256.34405915663643	791.6898793539897	0.0	222.4784660274075	827.4492009870443	0.0	243.49911905690774	831.0812710565154	0.0	267.5064174642611	802.1354752764332	0.0	223.9269405323792	360.75675366484467	0.0	183.11048581172795	271.0227333123618	0.0	171.41516415262026	328.2848259454037	0.0	189.82594955017842	382.420507882931	0.0	174.75380443525424	421.0047123443307	0.0	123.24736573679941	429.6418330196455	0.0	279.452046675086	381.9458467366337	0.0	352.5429198757776	422.2643339515661	0.0	424.62994838689184	451.7838473687448	0.0
293	4.883333333333333	232.95270185876907	544.8081872055718	0.0	205.7886757548649	544.9084522861658	0.0	205.50249096823723	668.2291641589584	0.0	219.64761516964575	772.7884927564382	0.0	185.52860175798338	809.3068036684059	0.0	182.8574411235169	798.2104574842575	0.0	230.19780759324192	788.3168382783249	0.0	256.36642999123717	548.5766260847312	0.0	250.7639862586002	674.4989396983386	0.0	256.3649044906733	791.9936722264466	0.0	222.64842005998437	827.5397144939569	0.0	243.4600774171253	830.7730561343751	0.0	267.1732162660234	802.1088846142673	0.0	224.48689161425642	360.677452444582	0.0	184.43636500403758	271.1454965876822	0.0	172.54007764442088	328.21043263207577	0.0	189.69553764344337	381.84637189184747	0.0	168.94792070560214	415.59091699935215	0.0	115.58786200054652	417.2361289736842	0.0	279.607868299507	381.0418778215532	0.0	352.7308181333911	417.49468644100966	0.0	421.85912971083917	436.32462846524965	0.0
294	4.9	233.0162851957088	544.6060645542395	0.0	205.86951218853287	544.6844148192481	0.0	205.6275301213543	668.2906826772537	0.0	219.6628859855369	772.994483284643	0.0	185.3903813867974	809.1785884209041	0.0	182.62566767826488	798.1138190106251	0.0	230.24806126225138	788.1017835828233	0.0	256.57489798191034	548.3788254879111	0.0	250.92413809342358	674.2848557846826	0.0	256.4288593548613	792.2655737169591	0.0	222.81997891510136	827.6166847985634	0.0	243.39266295880284	830.4584023151848	0.0	266.8547183353203	802.031957048003	0.0	225.15206751756622	360.55442019544654	0.0	186.15431102699392	271.2100832503315	0.0	173.95330879646798	328.0707016787368	0.0	189.56597740299955	381.35848502877485	0.0	162.87149863974489	410.5042414664947	0.0	107.50873469735288	405.30940855868926	0.0	279.807818616059	380.13647475459925	0.0	352.11257185424574	413.14534809137876	0.0	416.2231272690086	421.03089090675365	0.0
295	4.916666666666667	233.06390512593563	544.4290870736531	0.0	205.97627962102777	544.4313541557032	0.0	205.75654213105065	668.2203499264486	0.0	219.64439241933894	773.1412680874461	0.0	185.24404196953495	809.046515402593	0.0	182.39234698462306	797.980079202097	0.0	230.26905481762665	787.8434535539249	0.0	256.7896211781595	548.1087349414685	0.0	251.10552813972328	673.904952807989	0.0	256.5327320814282	792.4861541279703	0.0	222.99037566103772	827.6681113998417	0.0	243.30948742675676	830.141607253285	0.0	266.56068365550414	801.9117918107848	0.0	225.91194205239447	360.3887939757981	0.0	188.20588751135193	271.2088888588081	0.0	175.61375627398715	327.8641672788494	0.0	189.44825493891477	380.9252562140341	0.0	156.74964245671993	405.7923862195141	0.0	99.3667398509473	394.03195783327857	0.0	280.0450688573789	379.2406320487843	0.0	350.6937669787396	409.2401364154896	0.0	407.93309125759805	406.06967659509587	0.0
296	4.933333333333334	233.08964274799763	544.2889784980314	0.0	206.08684580782563	544.1684931475518	0.0	205.8805813733502	668.0519543173722	0.0	219.58470521635226	773.2334463294559	0.0	185.1107136177899	808.9048665065211	0.0	182.17528475734252	797.8015352582523	0.0	230.2469624936517	787.5682153760533	0.0	256.98973222769087	547.7868571353887	0.0	251.29397688522667	673.4093458519749	0.0	256.66792261975525	792.6390450246371	0.0	223.15627403527637	827.6824039241601	0.0	243.2256739525556	829.8322625171869	0.0	266.29665522342754	801.7645864276366	0.0	226.75554041487925	360.1879014700794	0.0	190.51600209908918	271.14227550669136	0.0	177.47073280069296	327.5958967874605	0.0	189.37060121318396	380.52719645612024	0.0	150.79998006455284	401.5171350113891	0.0	91.49308411116846	383.5876011780285	0.0	280.3198049742873	378.37818267611374	0.0	348.45554435192076	405.81706340851986	0.0	397.2111235061233	391.6689181344454	0.0
297	4.95	233.08656497662668	544.1946354032256	0.0	206.18005494124134	543.915797013732	0.0	205.99321579834807	667.8211819347836	0.0	219.4900610804198	773.2743814882226	0.0	185.01034323177493	808.7569592239453	0.0	181.98526916097043	797.5774917892298	0.0	230.18591596847264	787.3020774052387	0.0	257.1552492247707	547.4400278287985	0.0	251.4766280521561	672.8519961928616	0.0	256.8228991805712	792.7157854335578	0.0	223.31650609990794	827.6528581344711	0.0	243.15973834518383	829.5504402225292	0.0	266.0676673892295	801.613902946477	0.0	227.67064290283858	359.96269355269817	0.0	192.99994499206846	271.018492336716	0.0	179.4681318776079	327.2767700140119	0.0	189.37503573438562	380.16025058196465	0.0	145.21644323124545	397.75086018342625	0.0	84.17536700050681	374.1674204629867	0.0	280.63976440167005	377.5822801173315	0.0	345.34430538635416	402.92526925808755	0.0	384.27485863740134	378.1223640011611	0.0
298	4.966666666666667	233.04997714493348	544.1544947814197	0.0	206.24020293117806	543.6963438020582	0.0	206.09192694338418	667.5636595152132	0.0	219.37777960049382	773.2679125459315	0.0	184.95844914727684	808.6164014030836	0.0	181.82611738383835	797.3188106881449	0.0	230.10167700933923	787.0675663885933	0.0	257.2735510555037	547.1012327675588	0.0	251.64447055369365	672.286464722118	0.0	256.9864769391977	792.7180566366051	0.0	223.47486735482164	827.5813827478528	0.0	243.1308546912736	829.3235113202338	0.0	265.8813683113996	801.4840324466643	0.0	228.64624660830543	359.7258712244774	0.0	195.57351339283332	270.8519752198149	0.0	181.54901020914826	326.9219114429456	0.0	189.51178546593013	379.8335369911227	0.0	140.16663379104165	394.57253065506205	0.0	77.6616574888291	365.9713035310722	0.0	281.0183402173158	376.8900069400015	0.0	341.28376419163686	400.62423294493254	0.0	369.35158203127446	365.7841019550819	0.0
299	4.983333333333333	232.98154718173546	544.1763567717747	0.0	206.26186737866342	543.5374273826104	0.0	206.17839404003044	667.309535383145	0.0	219.26998809815748	773.2255052138196	0.0	184.95843724664186	808.4980883695572	0.0	181.69341884310387	797.0439548514427	0.0	230.01479772015955	786.881532020302	0.0	257.34046441766645	546.8082784017031	0.0	251.79082815106392	671.760605520924	0.0	257.14922290043654	792.656193249197	0.0	223.6380182604292	827.4778954912982	0.0	243.15326225084584	829.1736813053836	0.0	265.74512679295646	801.3880811783332	0.0	229.67508180240898	359.49105769094075	0.0	198.1602892283017	270.6608822005143	0.0	183.65974363359126	326.54765091008846	0.0	189.82989812633244	379.56595018602343	0.0	135.79779819042642	392.06631127727934	0.0	72.1772329016155	359.2166387144994	0.0	281.4685352831724	376.3414663680396	0.0	336.2146407240939	398.9862826796032	0.0	352.71495264058854	355.0471468741272	0.0
300	5.0	232.89050687864582	544.2644408159878	0.0	206.25034165123114	543.4650115897284	0.0	206.25637674814342	667.0780375061861	0.0	219.18659463467554	773.1651861712056	0.0	184.9995441752129	808.4096881635103	0.0	181.57774773379012	796.773201613361	0.0	229.94530954802545	786.7517333162199	0.0	257.35775596743423	546.598198680111	0.0	251.91087662782724	671.3089974976222	0.0	257.30276985547505	792.544839595569	0.0	223.80997814221928	827.3572493663086	0.0	243.23137694979326	829.1093124399798	0.0	265.6600922196339	801.3229453640355	0.0	230.75253503289983	359.2711585296218	0.0	200.69549655783052	270.4636112439553	0.0	185.75327828540517	326.1694787810897	0.0	190.3650356445937	379.38141340692613	0.0	132.23322267425746	390.3161267603206	0.0	67.92199369114086	354.1281316076424	0.0	281.99997397887216	375.9776531119294	0.0	330.13753749090307	398.09176705792754	0.0	334.70264274327155	346.2965394103851	0.0
301	5.016666666666667	232.79156688794833	544.4169344732837	0.0	206.21789049332995	543.4939050429172	0.0	206.32875911857266	666.8752054207495	0.0	219.14071040192343	773.099233903154	0.0	185.0665044127242	808.355709391594	0.0	181.4726404949309	796.5294868776431	0.0	229.90717209015133	786.6760403255206	0.0	257.3327601674026	546.4985086091915	0.0	252.00321377071612	670.9475128262142	0.0	257.43864983024275	792.3983023390504	0.0	223.98935847885625	827.2365604974916	0.0	243.35785747910174	829.1284914006208	0.0	265.6207886609399	801.2774506360217	0.0	231.87168008960325	359.0770768358642	0.0	203.12775117423928	270.2751189120032	0.0	187.7897462998666	325.8028911418858	0.0	191.1293795210692	379.3038211818725	0.0	129.56113678879822	389.3962063330834	0.0	65.04986280571842	350.91234264561564	0.0	282.6220769700546	375.83406689977403	0.0	323.13309799604866	398.0151116984562	0.0	315.70799105677037	339.86398818167766	0.0
302	5.033333333333333	232.7002774852791	544.6254933174512	0.0	206.1809440775771	543.623050180299	0.0	206.39673319775048	666.6930837313964	0.0	219.13796308677328	773.0271484850521	0.0	185.15000222955726	808.3445484104263	0.0	181.3791387366464	796.3386448486568	0.0	229.90669394906547	786.645708086773	0.0	257.27814249262303	546.5214886014796	0.0	252.06996130500332	670.6716458659853	0.0	257.54843101612136	792.2279645165228	0.0	224.16960075041914	827.1331121639593	0.0	243.5149320282496	829.2257634666225	0.0	265.6204044683845	801.2434049734553	0.0	233.01765338560284	358.91900544650196	0.0	205.41680126053922	270.1051245213185	0.0	189.73306413851566	325.46588767965966	0.0	192.1089269631228	379.35398422060047	0.0	127.8317938794863	389.3634701095708	0.0	63.65724007821537	349.7387415276359	0.0	283.3421748876398	375.936718613643	0.0	315.3594484242088	398.81112594414157	0.0	296.1738745126786	336.00754930173423	0.0
303	5.05	232.62819473172814	544.8759250930416	0.0	206.15776174334655	543.8388466133074	0.0	206.46076154424864	666.509757169713	0.0	219.1775157003825	772.9407102213306	0.0	185.24711434937092	808.3847535596589	0.0	181.30456919594698	796.2214699509728	0.0	229.9466495614942	786.6477756465358	0.0	257.2079177064694	546.6639850105023	0.0	252.11447819063727	670.4569597380795	0.0	257.62513246485344	792.0417689529683	0.0	224.33875573364267	827.0618688101238	0.0	243.67799400174286	829.3926327262171	0.0	265.6535273177866	801.2182588592625	0.0	234.16498637424652	358.80861212897923	0.0	207.53067902206266	269.96014138719295	0.0	191.54790190830184	325.1788266447217	0.0	193.26792946061028	379.54785812635	0.0	127.06293634258196	390.2536448839649	0.0	63.782453004935576	350.72668752873545	0.0	284.1492327135648	376.3043070436308	0.0	307.035120097155	400.5074565906899	0.0	276.5791357724406	334.8999745633041	0.0
